<?xml version="1.0" standalone="no"?>
<!DOCTYPE svg PUBLIC "-//W3C//DTD SVG 20010904//EN"
 "http://www.w3.org/TR/2001/REC-SVG-20010904/DTD/svg10.dtd">
<svg version="1.0" xmlns="http://www.w3.org/2000/svg"
 width="280.000000pt" height="284.000000pt" viewBox="0 0 280.000000 284.000000"
 preserveAspectRatio="xMidYMid meet">

<g transform="translate(0.000000,284.000000) scale(0.100000,-0.100000)"
fill="#000000" stroke="none">
<path d="M1345 2834 c-140 -19 -194 -30 -286 -60 -261 -84 -529 -276 -697
-499 -104 -140 -196 -351 -244 -567 -31 -137 -33 -445 -5 -577 72 -336 239
-618 483 -820 261 -216 573 -323 899 -308 622 29 1134 482 1272 1127 25 119
26 440 0 557 -122 568 -573 1023 -1117 1127 -80 16 -255 27 -305 20z m375
-128 c250 -70 508 -242 676 -449 201 -250 311 -555 302 -837 l-3 -94 -38 -8
c-100 -21 -254 -118 -392 -249 -157 -149 -285 -259 -327 -280 -124 -63 -349
-15 -466 99 -74 72 -105 146 -110 259 -4 85 -2 98 22 147 32 65 80 110 156
145 44 20 70 25 136 26 73 0 87 -3 156 -38 89 -44 156 -111 207 -208 54 -101
77 -102 68 -3 -13 133 -90 277 -213 399 -132 129 -235 171 -403 163 -82 -5
-92 -4 -76 8 39 29 177 74 302 100 181 37 283 32 388 -20 44 -22 103 -63 145
-101 38 -36 75 -65 80 -65 6 0 10 10 10 23 0 64 -200 279 -340 365 -203 125
-453 183 -660 153 -194 -29 -375 -104 -623 -260 -80 -50 -186 -111 -234 -134
-78 -37 -96 -42 -160 -41 -40 0 -75 2 -78 6 -8 8 29 116 71 207 156 338 516
620 899 705 53 12 112 15 240 12 146 -3 184 -8 265 -30z m-506 -781 c3 -8 -8
-52 -25 -98 -95 -256 -101 -489 -18 -696 39 -98 146 -258 207 -311 63 -55 191
-117 277 -135 39 -7 144 -19 235 -26 160 -11 168 -13 255 -52 50 -22 122 -51
160 -63 l70 -22 -83 -81 c-146 -141 -344 -255 -532 -306 -696 -187 -1390 259
-1555 1000 -9 39 -19 145 -22 238 l-6 167 51 0 c100 0 267 66 501 199 268 152
373 200 437 201 28 0 44 -5 48 -15z"/>
<path d="M710 1500 c-25 -25 -25 -42 0 -65 27 -24 68 -13 76 22 5 20 2 31 -16
45 -28 23 -35 23 -60 -2z"/>
<path d="M536 1334 c-20 -19 -20 -38 -2 -54 23 -19 61 -8 64 18 7 44 -32 67
-62 36z"/>
<path d="M502 1084 c-12 -8 -22 -25 -22 -38 0 -26 28 -56 53 -56 21 0 57 35
57 55 0 18 -35 55 -53 55 -7 0 -23 -7 -35 -16z"/>
<path d="M940 890 c-25 -25 -26 -72 -2 -93 25 -22 75 -21 95 1 37 41 6 112
-48 112 -14 0 -34 -9 -45 -20z"/>
<path d="M924 596 c-28 -28 -34 -42 -34 -76 0 -57 50 -110 104 -110 65 0 112
38 117 95 3 47 -3 65 -32 94 -25 26 -39 31 -76 31 -38 0 -50 -5 -79 -34z"/>
<path d="M1830 483 c-8 -3 -27 -17 -42 -31 -49 -46 -33 -129 31 -162 58 -30
141 27 141 96 0 60 -77 118 -130 97z"/>
<path d="M2032 438 c-7 -7 -12 -25 -12 -40 0 -54 82 -57 88 -4 2 15 -2 34 -9
42 -14 17 -51 18 -67 2z"/>
<path d="M1514 297 c-65 -56 -3 -160 77 -127 51 21 64 86 24 125 -30 31 -66
32 -101 2z"/>
</g>
</svg>
